<svg xmlns="http://www.w3.org/2000/svg" viewBox="0 0 100 100" fill="none" stroke="#ff8d21" stroke-linecap="round" stroke-linejoin="round">
  <!-- Heart on top -->
  <path d="M 50 18 C 50 18 44 11 39 14 C 34 17 35 24 50 30 C 65 24 66 17 61 14 C 56 11 50 18 50 18 Z" stroke-width="2" fill="none"/>

  <!-- Top tier -->
  <rect x="35" y="32" width="30" height="16" rx="2" stroke-width="2.2"/>
  <!-- Top tier scallop decoration -->
  <path d="M 35 42 Q 38.5 38 42 42 Q 45.5 38 49 42 Q 52.5 38 56 42 Q 59.5 38 63 42 Q 63 42 65 42" stroke-width="1.5"/>

  <!-- Middle tier -->
  <rect x="25" y="48" width="50" height="18" rx="2" stroke-width="2.2"/>
  <!-- Middle tier scallop decoration -->
  <path d="M 25 60 Q 29.2 55 33.3 60 Q 37.5 55 41.7 60 Q 45.8 55 50 60 Q 54.2 55 58.3 60 Q 62.5 55 66.7 60 Q 70.8 55 75 60" stroke-width="1.5"/>

  <!-- Bottom tier -->
  <rect x="15" y="66" width="70" height="20" rx="2" stroke-width="2.2"/>
  <!-- Bottom tier scallop decoration -->
  <path d="M 15 80 Q 19.4 75 23.8 80 Q 28.1 75 32.5 80 Q 36.9 75 41.3 80 Q 45.6 75 50 80 Q 54.4 75 58.8 80 Q 63.1 75 67.5 80 Q 71.9 75 76.3 80 Q 80.6 75 85 80" stroke-width="1.5"/>

  <!-- Base plate -->
  <line x1="10" y1="86" x2="90" y2="86" stroke-width="2.5"/>
</svg>
