<svg xmlns="http://www.w3.org/2000/svg" viewBox="0 0 100 100">
  <!-- Plate outer border -->
  <circle cx="50" cy="50" r="44" stroke="#ffa447" stroke-width="2.5" fill="none" />
  <!-- Plate inner border -->
  <circle cx="50" cy="50" r="32" stroke="#ffa447" stroke-width="1.2" fill="none" />
  
  <!-- Fork (Left) -->
  <!-- Fork Head -->
  <path d="M 28 20 L 28 35 C 28 42, 36 42, 36 35 L 36 20 M 30.5 20 L 30.5 33 M 33.5 20 L 33.5 33" stroke="#ffa447" stroke-width="1.8" stroke-linecap="round" stroke-linejoin="round" fill="none" />
  <!-- Fork Handle -->
  <path d="M 32 39 L 32 80" stroke="#ffa447" stroke-width="2.5" stroke-linecap="round" />

  <!-- Spoon (Middle) -->
  <!-- Spoon Bowl -->
  <path d="M 44 30 C 44 19, 56 19, 56 30 C 56 40, 44 40, 44 30 Z" fill="#ffa447" />
  <!-- Spoon Handle -->
  <path d="M 50 38 L 50 80" stroke="#ffa447" stroke-width="2.5" stroke-linecap="round" />

  <!-- Knife (Right) -->
  <!-- Knife Blade -->
  <path d="M 67 20 C 67 20, 72 25, 72 48 L 67 48 Z" fill="#ffa447" />
  <!-- Knife Handle -->
  <path d="M 67 48 L 67 80" stroke="#ffa447" stroke-width="2.5" stroke-linecap="round" />
</svg>
